<?xml version="1.0" encoding="UTF-8" standalone="no"?>
<!DOCTYPE svg PUBLIC "-//W3C//DTD SVG 1.1//EN" "http://www.w3.org/Graphics/SVG/1.1/DTD/svg11.dtd">
<svg width="100%" height="100%" viewBox="0 0 16 16" version="1.1" xmlns="http://www.w3.org/2000/svg" xmlns:xlink="http://www.w3.org/1999/xlink" xml:space="preserve" xmlns:serif="http://www.serif.com/" style="fill-rule:evenodd;clip-rule:evenodd;stroke-linejoin:round;stroke-miterlimit:2;">
    <g id="cat">
        <rect x="4" y="3" width="2" height="2" style="fill:#c9cdcf;"/>
        <rect x="10" y="3" width="2" height="2" style="fill:#db9c3e;"/>
        <rect x="3" y="5" width="2" height="2" style="fill:#423b32;"/>
        <rect x="5" y="5" width="2" height="2" style="fill:#4f4940;"/>
        <rect x="7" y="5" width="2" height="2" style="fill:#db9c3e;"/>
        <rect x="9" y="5" width="4" height="2" style="fill:#e5be84;"/>
        <rect x="3" y="7" width="2" height="2" style="fill:#efd496;"/>
        <rect x="5" y="7" width="2" height="2" style="fill:#121928;"/>
        <rect x="7" y="7" width="2" height="2" style="fill:#fff;"/>
        <rect x="9" y="7" width="2" height="2" style="fill:#121928;"/>
        <rect x="11" y="7" width="2" height="2" style="fill:#71e1f8;"/>
        <rect x="3" y="9" width="2" height="2" style="fill:#423b32;"/>
        <rect x="5" y="9" width="2" height="2" style="fill:#e7e9ea;"/>
        <rect x="7" y="9" width="2" height="2" style="fill:#eaa0a0;"/>
        <rect x="9" y="9" width="2" height="2" style="fill:#e7e9ea;"/>
        <rect x="11" y="9" width="2" height="2" style="fill:#db9c3e;"/>
        <rect x="3" y="11" width="2" height="2" style="fill:#fff;"/>
        <rect x="5" y="11" width="6" height="2" style="fill:#dcdede;"/>
        <rect x="11" y="11" width="2" height="2" style="fill:#fff;"/>
    </g>
    <g id="ion">
        <path d="M12,2L13,2L13,1L14,1L14,2L15,2L15,3L14,3L14,4L13,4L13,3L12,3L12,2Z" style="fill:#f1da3c;"/>
    </g>
</svg>
